<svg xmlns="http://www.w3.org/2000/svg" xmlns:xlink="http://www.w3.org/1999/xlink" version="1.1" x="0px" y="0px" viewBox="0 0 24 30" style="enable-background:new 0 0 24 24;" xml:space="preserve"><path d="M22.898,11.272H9.617H8.271l3.624-2.092c0.191-0.11,0.257-0.355,0.146-0.546  c-0.109-0.19-0.354-0.257-0.546-0.146L7.871,10.58l1.46-2.529c0.111-0.191,0.045-0.436-0.146-0.546  C8.994,7.393,8.749,7.459,8.639,7.65l-1.461,2.53V5.996c0-0.221-0.179-0.4-0.4-0.4s-0.4,0.179-0.4,0.4v4.184L4.286,6.556  C4.176,6.366,3.931,6.3,3.74,6.41c-0.191,0.11-0.257,0.355-0.146,0.546l2.092,3.623l-2.31-1.334C3.184,9.135,2.939,9.201,2.83,9.392  C2.719,9.583,2.785,9.828,2.976,9.938l2.31,1.334H1.102c-0.221,0-0.4,0.179-0.4,0.4s0.179,0.4,0.4,0.4h4.184l-2.882,1.664  c-0.191,0.11-0.257,0.355-0.146,0.547c0.074,0.128,0.208,0.2,0.347,0.2c0.068,0,0.137-0.018,0.2-0.054l2.898-1.674l-2.873,5.05  c-0.109,0.192-0.042,0.437,0.15,0.546c0.063,0.035,0.13,0.053,0.197,0.053c0.139,0,0.274-0.073,0.348-0.202l2.855-5.018v3.729  c0,0.221,0.179,0.4,0.4,0.4s0.4-0.18,0.4-0.4v-3.822l1.466,2.393c0.076,0.123,0.207,0.191,0.342,0.191  c0.071,0,0.143-0.02,0.208-0.06c0.188-0.115,0.248-0.361,0.132-0.55l-1.385-2.26l3.552,2.051c0.063,0.036,0.132,0.054,0.2,0.054  c0.138,0,0.273-0.072,0.347-0.2c0.111-0.191,0.045-0.437-0.146-0.547l-3.624-2.092h1.346h13.282c0.221,0,0.4-0.179,0.4-0.4  S23.119,11.272,22.898,11.272z"/><text x="0" y="39" fill="#000000" font-size="5px" font-weight="bold" font-family="'Helvetica Neue', Helvetica, Arial-Unicode, Arial, Sans-serif">Created by myiconfinder</text><text x="0" y="44" fill="#000000" font-size="5px" font-weight="bold" font-family="'Helvetica Neue', Helvetica, Arial-Unicode, Arial, Sans-serif">from the Noun Project</text></svg>